<svg width="1364" height="582" viewBox="0 0 1364 582" fill="none" xmlns="http://www.w3.org/2000/svg">
<path d="M683.504 302L683.806 295.663L771.322 90.7548H792.748V97.0921L705.233 302H683.504ZM588.142 302V90.7548H610.776V302H588.142ZM683.806 302L595.989 97.0921V90.7548H617.717L705.233 295.663V302H683.806ZM777.961 302V90.7548H800.595V302H777.961ZM848.957 302V90.7548H871.59V302H848.957ZM860.726 302V279.97H982.042V302H860.726ZM860.726 206.034V184.004H976.006V206.034H860.726ZM860.726 112.785V90.7548H982.042V112.785H860.726ZM1021.36 302V90.7548H1043.99V302H1021.36ZM1034.34 215.691V193.36H1098.01C1110.69 193.36 1120.65 189.839 1127.89 182.797C1135.13 175.555 1138.75 165.697 1138.75 153.223H1163.2C1163.2 172.134 1157.26 187.324 1145.39 198.792C1133.52 210.058 1117.73 215.691 1098.01 215.691H1034.34ZM1138.75 153.223C1138.75 140.749 1135.13 130.992 1127.89 123.95C1120.65 116.708 1110.69 113.086 1098.01 113.086H1034.34V90.7548H1098.01C1117.73 90.7548 1133.52 96.388 1145.39 107.654C1157.26 118.921 1163.2 134.11 1163.2 153.223H1138.75ZM1139.96 302L1087.75 210.259L1108.27 200.602L1164.71 299.586V302H1139.96ZM1336.94 302L1260.59 97.0921L1258.48 90.7548H1281.11L1361.38 299.586V302H1336.94ZM1178.2 302V299.586L1258.48 90.7548H1281.11L1279 97.0921L1202.65 302H1178.2ZM1207.78 246.171L1216.83 224.141H1325.77L1334.83 246.171H1207.78Z" fill="white"/>
<path d="M589.608 495V350.745H595.79V495H589.608ZM592.905 431.94V426.17H638.036C649.714 426.17 658.644 423.01 664.826 416.69C671.146 410.371 674.306 401.921 674.306 391.343H680.488C680.488 403.433 676.71 413.256 669.154 420.812C661.735 428.231 651.363 431.94 638.036 431.94H592.905ZM674.306 391.343C674.306 380.764 671.146 372.315 664.826 365.995C658.644 359.675 649.714 356.515 638.036 356.515H592.905V350.745H638.036C651.363 350.745 661.735 354.523 669.154 362.08C676.71 369.498 680.488 379.253 680.488 391.343H674.306ZM674.306 495L634.121 430.291L639.891 427.818L680.488 493.351V495H674.306ZM745.463 496.649C736.12 496.649 727.74 494.45 720.321 490.054C713.04 485.658 707.338 479.544 703.216 471.713C699.095 463.745 697.034 454.609 697.034 444.305C697.034 433.863 699.095 424.727 703.216 416.896C707.338 409.065 713.04 402.952 720.321 398.555C727.74 394.159 736.12 391.961 745.463 391.961C754.942 391.961 763.323 394.159 770.604 398.555C777.886 402.952 783.587 409.065 787.709 416.896C791.83 424.727 793.891 433.863 793.891 444.305C793.891 454.609 791.83 463.745 787.709 471.713C783.587 479.544 777.886 485.658 770.604 490.054C763.323 494.45 754.942 496.649 745.463 496.649ZM745.669 490.878C753.774 490.878 760.987 488.955 767.307 485.108C773.627 481.124 778.572 475.629 782.144 468.622C785.854 461.615 787.709 453.51 787.709 444.305C787.709 434.963 785.854 426.857 782.144 419.988C778.572 412.981 773.627 407.554 767.307 403.707C760.987 399.723 753.706 397.731 745.463 397.731C737.357 397.731 730.075 399.723 723.618 403.707C717.299 407.554 712.284 412.981 708.575 419.988C705.003 426.857 703.216 434.963 703.216 444.305C703.216 453.51 705.003 461.615 708.575 468.622C712.284 475.629 717.299 481.124 723.618 485.108C730.075 488.955 737.425 490.878 745.669 490.878ZM871.647 496.649C863.678 496.649 856.534 495.069 850.215 491.909C843.895 488.612 838.606 484.078 834.347 478.308C830.225 472.537 827.34 465.668 825.691 457.7V430.91C827.34 422.941 830.225 416.072 834.347 410.302C838.606 404.532 843.895 400.067 850.215 396.907C856.534 393.61 863.678 391.961 871.647 391.961C880.989 391.961 889.301 394.159 896.582 398.555C903.864 402.952 909.565 409.065 913.687 416.896C917.808 424.727 919.869 433.863 919.869 444.305C919.869 454.609 917.808 463.745 913.687 471.713C909.565 479.544 903.864 485.658 896.582 490.054C889.301 494.45 880.989 496.649 871.647 496.649ZM823.837 495V346.624L829.401 345.799L830.019 347.448V427.612L827.134 444.305L830.019 460.997V495H823.837ZM871.647 490.878C879.89 490.878 887.171 488.955 893.491 485.108C899.811 481.124 904.757 475.629 908.329 468.622C911.901 461.615 913.687 453.51 913.687 444.305C913.687 434.963 911.901 426.857 908.329 419.988C904.757 412.981 899.811 407.554 893.491 403.707C887.171 399.723 879.89 397.731 871.647 397.731C863.541 397.731 856.26 399.723 849.803 403.707C843.483 407.554 838.537 412.981 834.965 419.988C831.393 426.857 829.607 434.963 829.607 444.305C829.607 453.51 831.393 461.615 834.965 468.622C838.537 475.629 843.483 481.124 849.803 485.108C856.26 488.955 863.541 490.878 871.647 490.878ZM988.973 496.649C979.631 496.649 971.25 494.45 963.831 490.054C956.55 485.658 950.848 479.544 946.727 471.713C942.605 463.745 940.545 454.609 940.545 444.305C940.545 433.863 942.605 424.727 946.727 416.896C950.848 409.065 956.55 402.952 963.831 398.555C971.25 394.159 979.631 391.961 988.973 391.961C998.453 391.961 1006.83 394.159 1014.11 398.555C1021.4 402.952 1027.1 409.065 1031.22 416.896C1035.34 424.727 1037.4 433.863 1037.4 444.305C1037.4 454.609 1035.34 463.745 1031.22 471.713C1027.1 479.544 1021.4 485.658 1014.11 490.054C1006.83 494.45 998.453 496.649 988.973 496.649ZM989.179 490.878C997.285 490.878 1004.5 488.955 1010.82 485.108C1017.14 481.124 1022.08 475.629 1025.65 468.622C1029.36 461.615 1031.22 453.51 1031.22 444.305C1031.22 434.963 1029.36 426.857 1025.65 419.988C1022.08 412.981 1017.14 407.554 1010.82 403.707C1004.5 399.723 997.216 397.731 988.973 397.731C980.867 397.731 973.586 399.723 967.129 403.707C960.809 407.554 955.794 412.981 952.085 419.988C948.513 426.857 946.727 434.963 946.727 444.305C946.727 453.51 948.513 461.615 952.085 468.622C955.794 475.629 960.809 481.124 967.129 485.108C973.586 488.955 980.936 490.878 989.179 490.878ZM1094.65 495C1085.99 495 1079.4 492.802 1074.86 488.405C1070.33 484.009 1068.06 476.384 1068.06 465.531V368.468H1074.24V465.325C1074.24 474.117 1075.89 480.3 1079.19 483.872C1082.49 487.444 1087.64 489.23 1094.65 489.23H1103.92L1104.74 491.291V495H1094.65ZM1050.96 399.38V393.61H1104.74V399.38H1050.96ZM1133.53 495V393.61H1139.72V495H1133.53ZM1136.62 364.965C1134.84 364.965 1133.33 364.346 1132.09 363.11C1130.85 361.873 1130.24 360.362 1130.24 358.576C1130.24 356.79 1130.85 355.279 1132.09 354.042C1133.33 352.806 1134.84 352.188 1136.62 352.188C1138.41 352.188 1139.92 352.806 1141.16 354.042C1142.39 355.279 1143.01 356.79 1143.01 358.576C1143.01 360.362 1142.39 361.873 1141.16 363.11C1139.92 364.346 1138.41 364.965 1136.62 364.965ZM1216.16 496.649C1206.68 496.649 1198.37 494.45 1191.23 490.054C1184.08 485.658 1178.52 479.544 1174.54 471.713C1170.55 463.745 1168.56 454.609 1168.56 444.305C1168.56 433.863 1170.55 424.727 1174.54 416.896C1178.52 409.065 1184.08 402.952 1191.23 398.555C1198.37 394.159 1206.68 391.961 1216.16 391.961C1224.27 391.961 1231.14 393.403 1236.77 396.289C1242.54 399.174 1247.28 402.952 1250.99 407.623C1254.7 412.294 1257.65 417.377 1259.85 422.873L1256.35 424.315H1254.08C1251.06 417.171 1246.53 410.989 1240.48 405.768C1234.44 400.41 1226.33 397.731 1216.16 397.731C1207.51 397.731 1200.09 399.792 1193.91 403.913C1187.72 408.035 1182.98 413.599 1179.69 420.606C1176.39 427.612 1174.74 435.512 1174.74 444.305C1174.74 452.96 1176.39 460.86 1179.69 468.004C1182.98 475.01 1187.72 480.575 1193.91 484.696C1200.09 488.818 1207.51 490.878 1216.16 490.878C1223.31 490.878 1229.35 489.642 1234.3 487.169C1239.38 484.696 1243.57 481.468 1246.87 477.483C1250.3 473.362 1252.98 468.965 1254.91 464.294H1257.17L1260.68 465.737C1258.48 471.095 1255.52 476.178 1251.81 480.987C1248.11 485.658 1243.3 489.436 1237.39 492.321C1231.62 495.206 1224.54 496.649 1216.16 496.649ZM1317.14 496.649C1307.39 496.649 1299.14 494.176 1292.41 489.23C1285.68 484.284 1281.28 477.277 1279.22 468.21L1283.34 467.179L1285.61 467.592C1287.53 475.01 1291.31 480.781 1296.94 484.902C1302.71 488.886 1309.72 490.878 1317.96 490.878C1326.76 490.878 1333.83 488.749 1339.19 484.49C1344.69 480.094 1347.43 474.53 1347.43 467.798C1347.43 462.44 1345.85 458.181 1342.69 455.021C1339.53 451.861 1334.38 449.457 1327.24 447.808L1308.9 443.687C1300.1 441.763 1293.58 438.466 1289.32 433.795C1285.2 428.986 1283.14 423.628 1283.14 417.721C1283.14 412.5 1284.51 407.966 1287.26 404.119C1290.14 400.273 1293.99 397.319 1298.8 395.258C1303.74 393.06 1309.31 391.961 1315.49 391.961C1325.66 391.961 1333.83 394.709 1340.01 400.204C1346.2 405.562 1350.11 412.5 1351.76 421.018L1347.64 421.842L1345.58 421.43C1344.07 413.324 1340.36 407.348 1334.45 403.501C1328.54 399.654 1321.95 397.731 1314.67 397.731C1307.52 397.731 1301.48 399.517 1296.53 403.089C1291.72 406.524 1289.32 411.195 1289.32 417.102C1289.32 423.01 1291.38 427.612 1295.5 430.91C1299.62 434.07 1304.71 436.336 1310.75 437.71L1329.09 441.832C1336.92 443.618 1342.97 446.709 1347.23 451.105C1351.49 455.364 1353.62 460.585 1353.62 466.767C1353.62 472.812 1352.1 478.102 1349.08 482.635C1346.06 487.032 1341.8 490.466 1336.3 492.939C1330.95 495.412 1324.56 496.649 1317.14 496.649Z" fill="white"/>
<g clip-path="url(#clip0_52_15)">
<path d="M462 101.99V421.94L414 456.18V194.16L230.66 325.18L48 194.11V456.3L0 422.41V102.04L230.47 266.87L462 101.99Z" fill="white"/>
<path d="M462 101.99V421.94L414 456.18V194.16L230.66 325.18L48 194.11V456.3L0 422.41V102.04L230.47 266.87L462 101.99Z" fill="white"/>
<path d="M397.76 62.18L231.3 182.12L64.22 62.6L104.34 34.07L231.36 124.69L357.8 34L397.76 62.18Z" fill="white"/>
<path d="M397.76 62.18L231.3 182.12L64.22 62.6L104.34 34.07L231.36 124.69L357.8 34L397.76 62.18Z" fill="white"/>
<path d="M340.61 509.3L292 543.37V365.19L340.58 329.93L339.95 357.38L339.98 357.85C341.06 373.13 341.05 389.04 341.04 404.43V413.07C341.05 417.84 341.06 422.62 341.08 427.39C341.14 454.3 341.21 482.07 340.61 509.3Z" fill="white"/>
<path d="M340.61 509.3L292 543.37V365.19L340.58 329.93L339.95 357.38L339.98 357.85C341.06 373.13 341.05 389.04 341.04 404.43V413.07C341.05 417.84 341.06 422.62 341.08 427.39C341.14 454.3 341.21 482.07 340.61 509.3Z" fill="white"/>
<path d="M175 366.23V543.34L126 508.9V331.08L175 366.23Z" fill="white"/>
<path d="M175 366.23V543.34L126 508.9V331.08L175 366.23Z" fill="white"/>
</g>
<defs>
<clipPath id="clip0_52_15">
<rect width="462" height="509.37" fill="white" transform="translate(0 34)"/>
</clipPath>
</defs>
</svg>
